<svg width="128" height="128" viewBox="0 0 128 128" fill="none" xmlns="http://www.w3.org/2000/svg">
<rect width="128" height="128" rx="17" fill="#5417D7"/>
<path fill-rule="evenodd" clip-rule="evenodd" d="M43.939 20.3386C54.9958 20.3386 63.9593 30.0698 63.9593 42.0739V20.3386H83.9797C95.0366 20.3386 104 30.0698 104 42.0739C104 54.0779 95.0366 63.8092 83.9797 63.8092C95.0366 63.8092 104 73.5405 104 85.5445C104 91.5049 101.79 96.9052 98.2113 100.832L98.1363 100.914L98.07 100.985C94.452 104.876 89.4744 107.28 83.9797 107.28C78.5223 107.28 73.5749 104.909 69.9634 101.065C69.9166 101.014 69.8697 100.964 69.8231 100.914C69.7792 100.866 69.7356 100.818 69.6922 100.77C66.1463 96.8487 63.9593 91.4739 63.9593 85.5445C63.9593 97.5486 54.9958 107.28 43.939 107.28C32.8821 107.28 23.9187 97.5486 23.9187 85.5445V63.8092H43.939C32.8821 63.8092 23.9187 54.0779 23.9187 42.0739C23.9187 30.0698 32.8821 20.3386 43.939 20.3386ZM59.9553 42.0739C59.9553 51.6772 52.7846 59.4621 43.939 59.4621V24.6857C52.7846 24.6857 59.9553 32.4706 59.9553 42.0739ZM99.9959 85.5445C99.9959 75.9411 92.8252 68.1562 83.9797 68.1562C75.134 68.1562 67.9634 75.9411 67.9634 85.5445H99.9959ZM27.9227 68.1562V85.5445C27.9227 95.1477 35.0934 102.933 43.939 102.933C52.7846 102.933 59.9553 95.1477 59.9553 85.5445V68.1562H27.9227ZM67.9634 59.4621V24.6857H83.9797C92.8252 24.6857 99.9959 32.4706 99.9959 42.0739C99.9959 51.6772 92.8252 59.4621 83.9797 59.4621H67.9634Z" fill="white"/>
</svg>
